<svg width="29" height="28" viewBox="0 0 29 28" fill="none" xmlns="http://www.w3.org/2000/svg">
<circle cx="14.3335" cy="14" r="13.5" fill="white" stroke="#5C5D61"/>
<path d="M11.1825 11.6854C11.2478 11.2281 11.3738 10.8244 11.5605 10.4744C11.7472 10.1198 11.9828 9.82342 12.2675 9.58542C12.5568 9.34742 12.8858 9.16776 13.2545 9.04642C13.6278 8.92042 14.0292 8.85742 14.4585 8.85742C14.8832 8.85742 15.2752 8.91809 15.6345 9.03942C15.9938 9.16076 16.3018 9.33342 16.5585 9.55742C16.8198 9.78142 17.0228 10.0521 17.1675 10.3694C17.3122 10.6868 17.3845 11.0391 17.3845 11.4264C17.3845 11.7438 17.3425 12.0284 17.2585 12.2804C17.1792 12.5278 17.0625 12.7448 16.9085 12.9314C16.7592 13.1181 16.5772 13.2768 16.3625 13.4074C16.1478 13.5381 15.9075 13.6454 15.6415 13.7294C16.2948 13.8974 16.7848 14.1868 17.1115 14.5974C17.4428 15.0034 17.6085 15.5121 17.6085 16.1234C17.6085 16.5854 17.5198 17.0008 17.3425 17.3694C17.1698 17.7381 16.9318 18.0531 16.6285 18.3144C16.3252 18.5711 15.9705 18.7694 15.5645 18.9094C15.1632 19.0448 14.7315 19.1124 14.2695 19.1124C13.7375 19.1124 13.2825 19.0471 12.9045 18.9164C12.5265 18.7811 12.2068 18.5968 11.9455 18.3634C11.6842 18.1301 11.4695 17.8548 11.3015 17.5374C11.1335 17.2154 10.9912 16.8678 10.8745 16.4944L11.4135 16.2704C11.5535 16.2098 11.6888 16.1934 11.8195 16.2214C11.9548 16.2494 12.0528 16.3264 12.1135 16.4524C12.1742 16.5831 12.2488 16.7394 12.3375 16.9214C12.4308 17.1034 12.5568 17.2784 12.7155 17.4464C12.8742 17.6144 13.0748 17.7568 13.3175 17.8734C13.5648 17.9901 13.8775 18.0484 14.2555 18.0484C14.6055 18.0484 14.9112 17.9924 15.1725 17.8804C15.4385 17.7638 15.6578 17.6144 15.8305 17.4324C16.0078 17.2504 16.1408 17.0474 16.2295 16.8234C16.3182 16.5994 16.3625 16.3778 16.3625 16.1584C16.3625 15.8878 16.3275 15.6404 16.2575 15.4164C16.1875 15.1924 16.0568 14.9988 15.8655 14.8354C15.6742 14.6721 15.4105 14.5438 15.0745 14.4504C14.7432 14.3571 14.3162 14.3104 13.7935 14.3104V13.4074C14.2228 13.4028 14.5868 13.3561 14.8855 13.2674C15.1888 13.1788 15.4338 13.0574 15.6205 12.9034C15.8118 12.7494 15.9495 12.5651 16.0335 12.3504C16.1222 12.1358 16.1665 11.8978 16.1665 11.6364C16.1665 11.3471 16.1198 11.0951 16.0265 10.8804C15.9378 10.6658 15.8142 10.4884 15.6555 10.3484C15.4968 10.2084 15.3078 10.1034 15.0885 10.0334C14.8738 9.96342 14.6405 9.92842 14.3885 9.92842C14.1365 9.92842 13.9008 9.96576 13.6815 10.0404C13.4668 10.1151 13.2755 10.2201 13.1075 10.3554C12.9442 10.4861 12.8065 10.6424 12.6945 10.8244C12.5825 11.0064 12.5032 11.2071 12.4565 11.4264C12.3958 11.5898 12.3188 11.6994 12.2255 11.7554C12.1368 11.8068 12.0062 11.8208 11.8335 11.7974L11.1825 11.6854Z" fill="#666666"/>
</svg>
