<svg width="28" height="28" viewBox="0 0 28 28" fill="none" xmlns="http://www.w3.org/2000/svg">
<circle cx="14" cy="14" r="13.5" fill="white" stroke="#5C5D61"/>
<path d="M15.0496 15.3808V11.2438C15.0496 11.1224 15.0543 10.9894 15.0636 10.8448C15.0729 10.7001 15.0869 10.5531 15.1056 10.4038L11.4516 15.3808H15.0496ZM17.6606 15.3808V16.0948C17.6606 16.1694 17.6373 16.2324 17.5906 16.2838C17.5486 16.3351 17.4809 16.3608 17.3876 16.3608H16.1416V18.9998H15.0496V16.3608H10.5976C10.5043 16.3608 10.4226 16.3351 10.3526 16.2838C10.2873 16.2278 10.2453 16.1601 10.2266 16.0808L10.1006 15.4438L14.9796 8.96875H16.1416V15.3808H17.6606Z" fill="#666666"/>
</svg>
