<svg width="29" height="28" viewBox="0 0 29 28" fill="none" xmlns="http://www.w3.org/2000/svg">
<circle cx="14.6667" cy="14" r="14" fill="#215886"/>
<path d="M17.4732 17.3896C17.6599 17.3896 17.8069 17.4433 17.9142 17.5506C18.0262 17.6533 18.0822 17.791 18.0822 17.9636V18.9996H11.1382V18.4256C11.1382 18.309 11.1615 18.1876 11.2082 18.0616C11.2595 17.931 11.3389 17.8143 11.4462 17.7116L14.5192 14.6316C14.7759 14.3703 15.0045 14.1206 15.2052 13.8826C15.4105 13.6446 15.5809 13.409 15.7162 13.1756C15.8515 12.9423 15.9542 12.7066 16.0242 12.4686C16.0989 12.226 16.1362 11.9716 16.1362 11.7056C16.1362 11.463 16.1012 11.2506 16.0312 11.0686C15.9612 10.882 15.8609 10.7256 15.7302 10.5996C15.6042 10.4736 15.4502 10.3803 15.2682 10.3196C15.0909 10.2543 14.8902 10.2216 14.6662 10.2216C14.4609 10.2216 14.2695 10.252 14.0922 10.3126C13.9195 10.3686 13.7655 10.4503 13.6302 10.5576C13.4949 10.6603 13.3805 10.7816 13.2872 10.9216C13.1939 11.0616 13.1239 11.2156 13.0772 11.3836C12.9979 11.5983 12.8952 11.7406 12.7692 11.8106C12.6432 11.8806 12.4612 11.897 12.2232 11.8596L11.3132 11.6986C11.3832 11.2133 11.5185 10.7886 11.7192 10.4246C11.9199 10.056 12.1695 9.75029 12.4682 9.50762C12.7715 9.26029 13.1169 9.07596 13.5042 8.95462C13.8962 8.82862 14.3162 8.76562 14.7642 8.76562C15.2309 8.76562 15.6579 8.83562 16.0452 8.97562C16.4325 9.11096 16.7639 9.30462 17.0392 9.55662C17.3145 9.80862 17.5292 10.112 17.6832 10.4666C17.8372 10.8213 17.9142 11.2156 17.9142 11.6496C17.9142 12.023 17.8582 12.3683 17.7462 12.6856C17.6389 13.003 17.4919 13.3063 17.3052 13.5956C17.1232 13.885 16.9085 14.165 16.6612 14.4356C16.4139 14.7063 16.1549 14.9816 15.8842 15.2616L13.6022 17.5926C13.8215 17.5273 14.0385 17.4783 14.2532 17.4456C14.4725 17.4083 14.6802 17.3896 14.8762 17.3896H17.4732Z" fill="white"/>
</svg>
