<svg width="106" height="30" viewBox="0 0 106 30" fill="none" xmlns="http://www.w3.org/2000/svg">
<path d="M42.3278 14.0323L46.5708 2.15638H45.8875L42.302 12.1679L38.3184 1.62404L34.3194 12.1645L30.8001 2.15638H30.1165L34.2897 14.0352L38.3175 3.43287L42.3278 14.0323Z" fill="#2C538A"/>
<path d="M48.0517 9.74242L51.6154 2.97534L55.1351 9.74242H48.0517ZM45.3333 13.459L46.0894 13.4582L47.721 10.3847H55.4625L57.037 13.457H57.7778L51.6191 1.56786L45.3333 13.459Z" fill="#2C538A"/>
<path d="M68.7775 11.2494L68.822 11.1962V7.44637H68.8213L68.8282 6.66786C68.8282 6.66786 66.7282 6.70431 65.3602 7.4469L65.5991 8.03905C65.5991 8.03905 66.7258 7.52205 67.9815 7.39038L68.1674 7.36564L68.1689 7.44637H68.1687V10.9471C66.5875 12.6845 64.7397 12.9456 63.7733 12.9456C60.7964 12.9456 58.4646 10.6866 58.4646 7.80273C58.4646 4.85219 60.7187 2.62699 63.7075 2.62699C65.3237 2.62699 66.7368 3.16993 67.7939 4.19749L67.9243 4.32427L68.401 3.87698L68.2561 3.73716C67.0634 2.58525 65.4908 1.97649 63.7077 1.97649C60.3466 1.97649 57.812 4.48132 57.812 7.80299C57.812 11.0512 60.4305 13.5957 63.7736 13.5957C65.7171 13.5957 67.541 12.7405 68.7775 11.2494Z" fill="#2C538A"/>
<path d="M79.9633 12.7754H72.0386V7.58804H78.0578V6.9418L72.0386 6.94158V2.77966H79.9631V2.14771H71.3857V13.4238H79.9633V12.7754Z" fill="#2C538A"/>
<path d="M31.512 29.3281H32.1655V18.0519H31.512V29.3281Z" fill="#2C538A"/>
<path d="M44.4776 28.2701L35.7455 18.1243L35.6882 18.058H35.1091V29.3301H35.7626V19.1448L44.4721 29.2638L44.5291 29.3301H45.1307V18.0525H44.4776V28.2701Z" fill="#2C538A"/>
<path d="M53.1382 23.4764L51.5101 23.087C49.3067 22.5594 48.4423 21.9212 48.4273 20.8107C48.409 19.4865 49.7451 18.665 52.0009 18.613C53.3348 18.5821 54.7229 18.9794 55.8317 19.7004L55.9845 19.7997L56.3696 19.2623L56.2012 19.153C55.0045 18.3773 53.479 17.9422 51.987 17.9654C49.3655 18.0026 47.75 19.094 47.7709 20.8133C47.7927 22.6196 49.4934 23.2784 51.3282 23.7217L52.9356 24.1103C55.2887 24.6796 56.0099 25.2194 56.0228 26.4203C56.0413 28.1097 54.1436 28.7405 52.362 28.7677C50.695 28.7911 48.9463 28.3306 47.6732 27.5303L47.5192 27.4333L47.1462 27.9698L47.3129 28.0774C48.634 28.9296 50.4433 29.416 52.2878 29.416C52.3127 29.416 52.3378 29.4158 52.3629 29.4156V29.4158C53.9293 29.4047 55.2044 28.9773 55.9533 28.2124C56.4339 27.7213 56.6841 27.0945 56.6761 26.3996C56.657 24.6652 55.3081 23.9953 53.1382 23.4764Z" fill="#2C538A"/>
<path d="M58.8291 29.3281H59.4824V18.0519H58.8291V29.3281Z" fill="#2C538A"/>
<path d="M84.3357 22.8463H76.0256V18.0519H75.3723V29.3281H76.0256V23.5105H84.3348L84.3357 29.3281H84.9887V18.0519H84.3357V22.8463Z" fill="#2C538A"/>
<path d="M86.6278 18.7004H91.1075V29.3281H91.7762V18.7004H96.2396V18.0519H86.6267L86.6278 18.7004Z" fill="#2C538A"/>
<path d="M102.462 23.4764L100.834 23.087C98.6302 22.5594 97.766 21.9212 97.7508 20.8107C97.7327 19.4865 99.0688 18.665 101.325 18.613C102.653 18.5821 104.047 18.9794 105.155 19.7004L105.308 19.7997L105.693 19.2623L105.525 19.153C104.328 18.3773 102.802 17.9422 101.311 17.9654C98.6892 18.0026 97.0737 19.094 97.0946 20.8133C97.1162 22.6196 98.8172 23.2784 100.652 23.7217L102.259 24.1103C104.612 24.6796 105.334 25.2194 105.346 26.4203C105.365 28.1097 103.467 28.7405 101.686 28.7677C100.015 28.7911 98.2702 28.3306 96.9969 27.5303L96.8428 27.4333L96.47 27.9698L96.6367 28.0774C97.9578 28.9296 99.767 29.416 101.612 29.416C101.636 29.416 101.662 29.4158 101.686 29.4156V29.4158C103.253 29.4047 104.528 28.9773 105.277 28.2124C105.758 27.7213 106.008 27.0945 106 26.3996C105.98 24.6652 104.632 23.9953 102.462 23.4764Z" fill="#2C538A"/>
<path d="M69.3461 23.3484L69.5853 23.9405C69.5853 23.9405 70.712 23.4237 71.9675 23.292L72.1533 23.2672L72.1553 23.3702V26.8514C70.5743 28.5886 68.7265 28.8499 67.7599 28.8499C64.7832 28.8499 62.4514 26.591 62.4514 23.707C62.4514 20.7564 64.7053 18.5312 67.6941 18.5312C69.3102 18.5312 70.7234 19.0743 71.7805 20.1017L71.9111 20.2285L72.3878 19.7812L72.2429 19.6414C71.0502 18.4895 69.4774 17.8808 67.6943 17.8808C64.3334 17.8808 61.7986 20.3856 61.7986 23.7073C61.7986 26.9554 64.4173 29.5 67.7601 29.5C69.7037 29.5 71.5277 28.6448 72.7643 27.1538L72.8086 27.1005V23.3508H72.8073L72.8141 22.5695C72.8141 22.5695 70.7142 22.606 69.3461 23.3484Z" fill="#2C538A"/>
<path d="M4.24057 20.4199L0 7.81505L0.2447 7.67821C0.41715 7.58193 0.5896 7.48321 0.762739 7.38432C1.14712 7.16454 1.54457 6.93725 1.95028 6.72962C3.50422 5.93355 4.82072 5.40254 6.09254 5.0584C7.63944 4.63961 9.19794 4.2884 10.7917 3.93564C11.5587 3.766 12.3399 3.60763 13.0955 3.45456C14.1631 3.23831 15.267 3.01477 16.3407 2.75656C18.0946 2.33467 19.7477 1.66362 21.254 0.761748C21.2999 0.734137 21.3486 0.711607 21.4035 0.68731L21.8026 0.500218L23.5996 5.84166L22.9613 6.05791L21.4118 1.45267C19.8976 2.33423 18.2456 2.99357 16.4977 3.41391C15.4122 3.67478 14.3022 3.89964 13.2288 4.11721C12.4762 4.26962 11.6978 4.42733 10.9369 4.59565C9.35121 4.94664 7.80088 5.29608 6.26801 5.7109C5.04262 6.04267 3.76785 6.55755 2.25647 7.33153C1.8647 7.53232 1.47422 7.75552 1.09637 7.97148C1.00305 8.02474 0.910247 8.07797 0.817271 8.13076L4.62418 19.4465C4.72954 19.3893 4.83448 19.3319 4.93914 19.2746C5.41348 19.0153 5.90402 18.7471 6.39701 18.5037C7.16106 18.1265 7.97489 17.7794 8.81622 17.472L9.04674 18.107C8.22835 18.4062 7.43689 18.7436 6.69462 19.1101C6.21408 19.3474 5.75125 19.6003 5.26142 19.8681C5.03961 19.9895 4.81658 20.1113 4.59124 20.232L4.24057 20.4199Z" fill="#6C96D5"/>
<path d="M12.947 13.8546C13.7775 16.3381 16.4962 17.6913 18.9785 16.8567C21.4617 16.0216 22.8204 13.2974 21.9911 10.8159C21.1612 8.33218 18.4421 6.97881 15.9597 7.81413C13.4754 8.64996 12.1171 11.3732 12.947 13.8546ZM30.1262 14.9453C29.3344 15.3318 28.5585 15.7475 27.7535 16.0962C25.9796 16.8647 24.1061 17.2918 22.2166 17.6573C20.6495 17.9604 19.0799 18.2536 17.5203 18.5921C15.2774 19.0788 13.0941 19.7596 11.0289 20.7793C10.3187 21.1301 9.62973 21.5239 8.91567 21.9062C7.5812 17.9397 6.24342 13.9633 4.89185 9.94585C5.44901 9.63436 6.00799 9.29941 6.5866 9.00303C7.89576 8.33253 9.2444 7.74104 10.6634 7.35697C12.2124 6.93773 13.7803 6.58497 15.3475 6.23818C17.1958 5.82911 19.0624 5.49999 20.9023 5.05755C22.6658 4.63346 24.3454 3.96108 25.9098 3.02431C25.9616 2.99338 26.0188 2.97196 26.0871 2.93971C27.4291 6.92845 28.7676 10.907 30.1262 14.9453Z" fill="#B29034"/>
<path d="M18.529 14.6636C18.6039 14.6158 18.6631 14.5817 18.7184 14.5423C19.1401 14.2414 19.4322 13.8587 19.3792 13.3147C19.3282 12.7902 18.9655 12.4958 18.5064 12.3384C18.1301 12.2093 17.7293 12.1531 17.3439 12.0476C17.0265 11.9608 16.7062 11.8716 16.4054 11.7415C16.1664 11.6381 16.0341 11.4255 16.0782 11.1456C16.1338 10.7914 16.5419 10.4357 16.9712 10.3583C17.4715 10.2681 17.7595 10.3938 18.0081 10.7569C18.0684 10.845 18.2489 10.923 18.3456 10.8973C18.5076 10.8543 18.5622 10.674 18.462 10.5337C18.3238 10.3406 18.1777 10.104 17.9777 10.0157C17.6563 9.87398 17.288 9.83844 16.9396 9.75801C16.8562 9.69148 16.8059 9.5531 16.7632 9.41229C16.7071 9.22756 16.5905 9.10762 16.3982 9.17664C16.2219 9.23988 16.1988 9.39952 16.2625 9.5713C16.3164 9.71669 16.3624 9.8651 16.4092 10.0044C16.3188 10.0648 16.2525 10.1062 16.1892 10.1516C15.7742 10.4507 15.5014 10.8361 15.5595 11.3669C15.6153 11.8766 15.9688 12.1687 16.4191 12.3258C16.7702 12.4484 17.1441 12.5043 17.5044 12.6025C17.8389 12.6937 18.186 12.7652 18.4966 12.9108C18.9343 13.1161 18.9922 13.5396 18.6669 13.9031C18.374 14.2305 17.9994 14.3745 17.5641 14.3283C17.294 14.2996 17.0613 14.1976 16.9419 13.9202C16.875 13.7648 16.7419 13.6875 16.5802 13.769C16.4212 13.8492 16.4053 13.9947 16.4752 14.1518C16.6281 14.4957 16.8988 14.7083 17.2557 14.7875C17.5049 14.8428 17.7663 14.8432 18.0462 14.8704C18.0831 14.9799 18.132 15.1103 18.1706 15.2436C18.2234 15.4261 18.3316 15.5581 18.5268 15.4963C18.7213 15.4347 18.7395 15.2665 18.672 15.0858C18.6206 14.9482 18.5773 14.8075 18.529 14.6636Z" fill="#EAD98C"/>
</svg>
