<svg width="28" height="28" viewBox="0 0 28 28" fill="none" xmlns="http://www.w3.org/2000/svg">
<circle cx="14" cy="14" r="14" fill="#215886"/>
<path d="M14.5594 16.6573V11.6929C14.5594 11.5473 14.565 11.3877 14.5762 11.2141C14.5874 11.0405 14.6042 10.8641 14.6266 10.6849L10.2418 16.6573H14.5594ZM17.6926 16.6573V17.5141C17.6926 17.6037 17.6646 17.6793 17.6086 17.7409C17.5582 17.8025 17.477 17.8333 17.365 17.8333H15.8698V21.0001H14.5594V17.8333H9.21701C9.10501 17.8333 9.00701 17.8025 8.92301 17.7409C8.84461 17.6737 8.79421 17.5925 8.77181 17.4973L8.62061 16.7329L14.4754 8.96289H15.8698V16.6573H17.6926Z" fill="white"/>
</svg>
